<svg xmlns="http://www.w3.org/2000/svg" viewBox="0 0 26 26">
    <defs>
        <style>
            path
            {
                fill: black;
            }

            @media (prefers-color-scheme: dark)
            {
                path
                {
                    fill: white;
                }
            }
        </style>
    </defs>
    <path d="M 12.8125 0 A 1.0001 1.0001 0 0 0 12.71875 0.03125 A 1.0001 1.0001 0 0 0 12.625 0.0625 A 1.0001 1.0001 0 0 0 12.28125 0.25 L 3.5 5.125 A 1.0001 1.0001 0 0 0 3.03125 5.71875 L 0.0625 15.625 A 1.0001 1.0001 0 0 0 0 16.09375 A 1.0001 1.0001 0 0 0 0 16.125 A 1.0001 1.0001 0 0 0 0 16.1875 A 1.0001 1.0001 0 0 0 0 16.21875 A 1.0001 1.0001 0 0 0 0.03125 16.28125 A 1.0001 1.0001 0 0 0 0.03125 16.3125 A 1.0001 1.0001 0 0 0 0.125 16.46875 A 1.0001 1.0001 0 0 0 0.125 16.5 A 1.0001 1.0001 0 0 0 0.15625 16.5625 A 1.0001 1.0001 0 0 0 0.15625 16.59375 A 1.0001 1.0001 0 0 0 0.40625 16.8125 A 1.0001 1.0001 0 0 0 0.53125 16.90625 L 12.21875 25.65625 A 1.0001 1.0001 0 0 0 12.375 25.78125 L 12.40625 25.8125 A 1.0001 1.0001 0 0 0 12.46875 25.84375 A 1.0001 1.0001 0 0 0 12.5 25.875 A 1.0001 1.0001 0 0 0 12.53125 25.90625 A 1.0001 1.0001 0 0 0 12.65625 25.9375 A 1.0001 1.0001 0 0 0 12.71875 25.96875 A 1.0001 1.0001 0 0 0 12.78125 25.96875 A 1.0001 1.0001 0 0 0 12.8125 26 A 1.0001 1.0001 0 0 0 12.875 26 A 1.0001 1.0001 0 0 0 12.90625 26 A 1.0001 1.0001 0 0 0 12.96875 26 A 1.0001 1.0001 0 0 0 13.03125 26 A 1.0001 1.0001 0 0 0 13.0625 26 A 1.0001 1.0001 0 0 0 13.25 25.96875 A 1.0001 1.0001 0 0 0 13.34375 25.9375 A 1.0001 1.0001 0 0 0 13.5 25.875 A 1.0001 1.0001 0 0 0 13.6875 25.71875 L 25.40625 16.9375 A 1.0001 1.0001 0 0 0 25.5 16.875 L 25.53125 16.875 A 1.0001 1.0001 0 0 0 25.59375 16.8125 A 1.0001 1.0001 0 0 0 25.8125 16.625 A 1.0001 1.0001 0 0 0 25.8125 16.59375 A 1.0001 1.0001 0 0 0 25.8125 16.5625 A 1.0001 1.0001 0 0 0 25.875 16.5 A 1.0001 1.0001 0 0 0 25.90625 16.46875 A 1.0001 1.0001 0 0 0 25.90625 16.4375 A 1.0001 1.0001 0 0 0 25.9375 16.375 A 1.0001 1.0001 0 0 0 25.9375 16.34375 A 1.0001 1.0001 0 0 0 25.96875 16.28125 A 1.0001 1.0001 0 0 0 25.96875 16.25 A 1.0001 1.0001 0 0 0 26 16.0625 A 1.0001 1.0001 0 0 0 26 16.03125 A 1.0001 1.0001 0 0 0 26 15.96875 A 1.0001 1.0001 0 0 0 26 15.9375 A 1.0001 1.0001 0 0 0 26 15.875 A 1.0001 1.0001 0 0 0 26 15.84375 A 1.0001 1.0001 0 0 0 25.96875 15.78125 A 1.0001 1.0001 0 0 0 25.96875 15.75 A 1.0001 1.0001 0 0 0 25.96875 15.71875 L 25.9375 15.65625 A 1.0001 1.0001 0 0 0 25.90625 15.5625 L 22.96875 5.71875 A 1.0001 1.0001 0 0 0 22.5 5.125 L 13.5625 0.15625 A 1.0001 1.0001 0 0 0 13.3125 0.03125 A 1.0001 1.0001 0 0 0 13.21875 0 A 1.0001 1.0001 0 0 0 13.125 0 A 1.0001 1.0001 0 0 0 13.09375 0 A 1.0001 1.0001 0 0 0 13.03125 0 A 1.0001 1.0001 0 0 0 13 0 A 1.0001 1.0001 0 0 0 12.9375 0 A 1.0001 1.0001 0 0 0 12.8125 0 z M 15.875 3.75 L 21.15625 6.6875 L 23.09375 13.1875 L 20.65625 11.21875 L 20.625 11.21875 L 15.875 3.75 z M 9.96875 3.84375 L 5.15625 11.375 L 2.90625 13.1875 L 4.84375 6.6875 L 9.96875 3.84375 z M 14.90625 7.3125 C 15.20625 7.3125 15.5125 7.4 15.8125 7.5 C 16.1125 7.6 16.3 7.8 16.5 8 C 16.7 8.2 16.8 8.50625 17 8.90625 C 17.1 9.20625 17.1875 9.6875 17.1875 10.1875 L 17.1875 11.3125 C 17.1875 11.8125 17.1 12.19375 17 12.59375 C 16.9 12.89375 16.69375 13.2 16.59375 13.5 C 16.39375 13.7 16.20625 13.9 15.90625 14 C 15.60625 14.1 15.3 14.1875 15 14.1875 C 14.7 14.1875 14.39375 14.1 14.09375 14 C 13.79375 13.9 13.60625 13.7 13.40625 13.5 C 13.20625 13.3 13.10625 12.99375 12.90625 12.59375 C 12.80625 12.29375 12.6875 11.8125 12.6875 11.3125 L 12.6875 10.1875 C 12.6875 9.6875 12.80625 9.30625 12.90625 8.90625 C 13.00625 8.50625 13.2125 8.3 13.3125 8 C 13.5125 7.8 13.7 7.6 14 7.5 C 14.3 7.4 14.60625 7.3125 14.90625 7.3125 z M 11.90625 7.5 L 12 7.5 L 12 14 L 10.6875 14 L 10.6875 9 L 9.1875 9.5 L 9.1875 8.5 L 11.90625 7.5 z M 14.8125 8.40625 C 14.7375 8.41875 14.64375 8.45 14.59375 8.5 C 14.49375 8.6 14.4125 8.6125 14.3125 8.8125 C 14.2125 9.0125 14.19375 9.1125 14.09375 9.3125 C 14.09375 9.5125 14 9.7 14 10 L 14 11.5 C 14 11.8 13.99375 11.9875 14.09375 12.1875 C 14.09375 12.3875 14.2125 12.5875 14.3125 12.6875 L 14.59375 13 L 15 13 C 15.1 13 15.30625 13.00625 15.40625 12.90625 C 15.50625 12.80625 15.5875 12.79375 15.6875 12.59375 C 15.7875 12.49375 15.80625 12.29375 15.90625 12.09375 C 15.90625 11.89375 16 11.70625 16 11.40625 L 16 10 C 16 9.7 16.00625 9.5125 15.90625 9.3125 C 15.80625 9.1125 15.6875 8.9125 15.6875 8.8125 L 15.40625 8.5 C 15.30625 8.4 15.2 8.40625 15 8.40625 C 14.95 8.40625 14.8875 8.39375 14.8125 8.40625 z M 5.90625 13.3125 L 12 18.53125 L 12 23 L 2.625 15.96875 L 5.90625 13.3125 z M 20.09375 13.3125 L 23.375 15.96875 L 14 23 L 14 18.53125 L 20.09375 13.3125 z"/>
</svg>
